<mxfile host="Electron" modified="2024-03-27T12:34:05.373Z" agent="Mozilla/5.0 (Macintosh; Intel Mac OS X 10_15_7) AppleWebKit/537.36 (KHTML, like Gecko) draw.io/24.1.0 Chrome/120.0.6099.109 Electron/28.1.0 Safari/537.36" etag="I2X4OyLoosHp6sTW8xWm" version="24.1.0" type="device">
  <diagram id="C5RBs43oDa-KdzZeNtuy" name="Page-1">
    <mxGraphModel dx="1026" dy="743" grid="1" gridSize="10" guides="1" tooltips="1" connect="1" arrows="1" fold="1" page="1" pageScale="1" pageWidth="827" pageHeight="1169" math="0" shadow="0">
      <root>
        <mxCell id="WIyWlLk6GJQsqaUBKTNV-0" />
        <mxCell id="WIyWlLk6GJQsqaUBKTNV-1" parent="WIyWlLk6GJQsqaUBKTNV-0" />
        <mxCell id="l1qJbp1Hj8XJhMT-di-j-0" value="Client" style="swimlane;fontStyle=0;childLayout=stackLayout;horizontal=1;startSize=26;fillColor=none;horizontalStack=0;resizeParent=1;resizeParentMax=0;resizeLast=0;collapsible=1;marginBottom=0;whiteSpace=wrap;html=1;labelBackgroundColor=none;strokeColor=#BAC8D3;fontColor=#EEEEEE;" vertex="1" parent="WIyWlLk6GJQsqaUBKTNV-1">
          <mxGeometry x="70" y="50" width="140" height="52" as="geometry" />
        </mxCell>
        <mxCell id="l1qJbp1Hj8XJhMT-di-j-10" value="&amp;lt;&amp;lt;interface&amp;gt;&amp;gt;&lt;div&gt;Facade&lt;/div&gt;" style="swimlane;fontStyle=0;childLayout=stackLayout;horizontal=1;startSize=26;fillColor=none;horizontalStack=0;resizeParent=1;resizeParentMax=0;resizeLast=0;collapsible=1;marginBottom=0;whiteSpace=wrap;html=1;labelBackgroundColor=none;strokeColor=#BAC8D3;fontColor=#EEEEEE;" vertex="1" parent="WIyWlLk6GJQsqaUBKTNV-1">
          <mxGeometry x="315" y="50" width="140" height="52" as="geometry" />
        </mxCell>
        <mxCell id="l1qJbp1Hj8XJhMT-di-j-11" value="useAllMethods()" style="text;strokeColor=none;fillColor=none;align=left;verticalAlign=top;spacingLeft=4;spacingRight=4;overflow=hidden;rotatable=0;points=[[0,0.5],[1,0.5]];portConstraint=eastwest;whiteSpace=wrap;html=1;labelBackgroundColor=none;fontColor=#EEEEEE;" vertex="1" parent="l1qJbp1Hj8XJhMT-di-j-10">
          <mxGeometry y="26" width="140" height="26" as="geometry" />
        </mxCell>
        <mxCell id="l1qJbp1Hj8XJhMT-di-j-14" value="" style="endArrow=open;endFill=1;endSize=12;html=1;rounded=0;exitX=1.021;exitY=0.385;exitDx=0;exitDy=0;exitPerimeter=0;entryX=-0.007;entryY=0.385;entryDx=0;entryDy=0;entryPerimeter=0;labelBackgroundColor=none;strokeColor=#0B4D6A;fontColor=default;" edge="1" parent="WIyWlLk6GJQsqaUBKTNV-1" source="l1qJbp1Hj8XJhMT-di-j-0" target="l1qJbp1Hj8XJhMT-di-j-10">
          <mxGeometry width="160" relative="1" as="geometry">
            <mxPoint x="190" y="160" as="sourcePoint" />
            <mxPoint x="350" y="160" as="targetPoint" />
          </mxGeometry>
        </mxCell>
        <mxCell id="l1qJbp1Hj8XJhMT-di-j-21" value="AnotherClass" style="swimlane;fontStyle=0;childLayout=stackLayout;horizontal=1;startSize=26;fillColor=#09555B;horizontalStack=0;resizeParent=1;resizeParentMax=0;resizeLast=0;collapsible=1;marginBottom=0;whiteSpace=wrap;html=1;fontColor=#EEEEEE;strokeColor=#BAC8D3;labelBackgroundColor=none;" vertex="1" parent="WIyWlLk6GJQsqaUBKTNV-1">
          <mxGeometry x="530" y="330" width="140" height="52" as="geometry" />
        </mxCell>
        <mxCell id="l1qJbp1Hj8XJhMT-di-j-23" value="&amp;lt;&amp;lt;interface&amp;gt;&amp;gt;&lt;div&gt;FirstInterface&lt;/div&gt;" style="swimlane;fontStyle=0;childLayout=stackLayout;horizontal=1;startSize=26;fillColor=#09555B;horizontalStack=0;resizeParent=1;resizeParentMax=0;resizeLast=0;collapsible=1;marginBottom=0;whiteSpace=wrap;html=1;fontColor=#EEEEEE;strokeColor=#BAC8D3;labelBackgroundColor=none;" vertex="1" parent="WIyWlLk6GJQsqaUBKTNV-1">
          <mxGeometry x="220" y="180" width="140" height="52" as="geometry" />
        </mxCell>
        <mxCell id="l1qJbp1Hj8XJhMT-di-j-25" value="SomeClass" style="swimlane;fontStyle=0;childLayout=stackLayout;horizontal=1;startSize=26;fillColor=#09555B;horizontalStack=0;resizeParent=1;resizeParentMax=0;resizeLast=0;collapsible=1;marginBottom=0;whiteSpace=wrap;html=1;fontColor=#EEEEEE;strokeColor=#BAC8D3;labelBackgroundColor=none;" vertex="1" parent="WIyWlLk6GJQsqaUBKTNV-1">
          <mxGeometry x="315" y="270" width="140" height="52" as="geometry" />
        </mxCell>
        <mxCell id="l1qJbp1Hj8XJhMT-di-j-27" value="&amp;lt;&amp;lt;interface&amp;gt;&amp;gt;&lt;div&gt;SecondInterface&lt;/div&gt;" style="swimlane;fontStyle=0;childLayout=stackLayout;horizontal=1;startSize=26;fillColor=#09555B;horizontalStack=0;resizeParent=1;resizeParentMax=0;resizeLast=0;collapsible=1;marginBottom=0;whiteSpace=wrap;html=1;fontColor=#EEEEEE;strokeColor=#BAC8D3;labelBackgroundColor=none;" vertex="1" parent="WIyWlLk6GJQsqaUBKTNV-1">
          <mxGeometry x="540" y="210" width="140" height="52" as="geometry" />
        </mxCell>
        <mxCell id="l1qJbp1Hj8XJhMT-di-j-32" value="" style="endArrow=open;endFill=1;endSize=12;html=1;rounded=0;exitX=1;exitY=0.25;exitDx=0;exitDy=0;entryX=0;entryY=0.25;entryDx=0;entryDy=0;strokeColor=#0B4D6A;labelBackgroundColor=none;fontColor=default;" edge="1" parent="WIyWlLk6GJQsqaUBKTNV-1" source="l1qJbp1Hj8XJhMT-di-j-25" target="l1qJbp1Hj8XJhMT-di-j-21">
          <mxGeometry width="160" relative="1" as="geometry">
            <mxPoint x="280" y="440" as="sourcePoint" />
            <mxPoint x="440" y="440" as="targetPoint" />
          </mxGeometry>
        </mxCell>
        <mxCell id="l1qJbp1Hj8XJhMT-di-j-33" value="" style="endArrow=block;dashed=1;endFill=0;endSize=12;html=1;rounded=0;entryX=0.5;entryY=1;entryDx=0;entryDy=0;exitX=0.579;exitY=-0.058;exitDx=0;exitDy=0;exitPerimeter=0;strokeColor=#0B4D6A;labelBackgroundColor=none;fontColor=default;" edge="1" parent="WIyWlLk6GJQsqaUBKTNV-1" source="l1qJbp1Hj8XJhMT-di-j-21" target="l1qJbp1Hj8XJhMT-di-j-27">
          <mxGeometry width="160" relative="1" as="geometry">
            <mxPoint x="150" y="470" as="sourcePoint" />
            <mxPoint x="310" y="470" as="targetPoint" />
          </mxGeometry>
        </mxCell>
        <mxCell id="l1qJbp1Hj8XJhMT-di-j-34" value="" style="endArrow=block;dashed=1;endFill=0;endSize=12;html=1;rounded=0;entryX=0.75;entryY=1;entryDx=0;entryDy=0;exitX=0.386;exitY=0;exitDx=0;exitDy=0;exitPerimeter=0;strokeColor=#0B4D6A;labelBackgroundColor=none;fontColor=default;" edge="1" parent="WIyWlLk6GJQsqaUBKTNV-1" source="l1qJbp1Hj8XJhMT-di-j-25" target="l1qJbp1Hj8XJhMT-di-j-23">
          <mxGeometry width="160" relative="1" as="geometry">
            <mxPoint x="160" y="480" as="sourcePoint" />
            <mxPoint x="320" y="480" as="targetPoint" />
          </mxGeometry>
        </mxCell>
        <mxCell id="l1qJbp1Hj8XJhMT-di-j-35" value="" style="endArrow=open;endFill=1;endSize=12;html=1;rounded=0;strokeColor=#0B4D6A;exitX=0.179;exitY=1.115;exitDx=0;exitDy=0;exitPerimeter=0;entryX=0.586;entryY=-0.058;entryDx=0;entryDy=0;entryPerimeter=0;" edge="1" parent="WIyWlLk6GJQsqaUBKTNV-1" source="l1qJbp1Hj8XJhMT-di-j-11" target="l1qJbp1Hj8XJhMT-di-j-23">
          <mxGeometry width="160" relative="1" as="geometry">
            <mxPoint x="250" y="410" as="sourcePoint" />
            <mxPoint x="410" y="410" as="targetPoint" />
          </mxGeometry>
        </mxCell>
        <mxCell id="l1qJbp1Hj8XJhMT-di-j-36" value="" style="endArrow=open;endFill=1;endSize=12;html=1;rounded=0;strokeColor=#0B4D6A;exitX=0.786;exitY=1.154;exitDx=0;exitDy=0;exitPerimeter=0;entryX=0.5;entryY=0;entryDx=0;entryDy=0;" edge="1" parent="WIyWlLk6GJQsqaUBKTNV-1" source="l1qJbp1Hj8XJhMT-di-j-11" target="l1qJbp1Hj8XJhMT-di-j-27">
          <mxGeometry width="160" relative="1" as="geometry">
            <mxPoint x="260" y="420" as="sourcePoint" />
            <mxPoint x="420" y="420" as="targetPoint" />
          </mxGeometry>
        </mxCell>
      </root>
    </mxGraphModel>
  </diagram>
</mxfile>
